<?xml version="1.0" encoding="UTF-8"?>
<!-- Created with Inkscape (http://www.inkscape.org/) -->
<svg width="3.4576mm" height="2.8018mm" version="1.1" viewBox="0 0 3.4576 2.8018" xmlns="http://www.w3.org/2000/svg">
 <g transform="translate(-46.462 -50.563)">
  <g transform="scale(.26458)" stroke-width="2" style="shape-inside:url(#rect2036);white-space:pre" aria-label="M">
   <path d="m179.49 191.1h-3.784v0.68933h0.27866c0.83601 0.0147 1.1147 0.0587 1.2173 0.20534 0.10267 0.132 0.10267 0.14667 0.10267 0.90933v5.6174c0 1.9947-0.27867 2.4053-1.7013 2.4787v0.68934h4.18v-0.68934c-1.408-0.0733-1.6867-0.484-1.6867-2.4787v-6.4827l3.4907 9.6507h0.58667l3.2707-9.6507v7.8467c0 0.74801 0 0.77734-0.088 0.92401-0.11734 0.14666-0.396 0.19066-1.232 0.19066h-0.264v0.68934h4.8107v-0.68934h-0.264c-0.836 0-1.1147-0.044-1.232-0.19066-0.088-0.14667-0.088-0.16134-0.088-0.92401v-6.9814c0-0.748 0-0.77733 0.088-0.90933 0.11733-0.14667 0.396-0.19067 1.232-0.20534h0.264v-0.68933h-3.6813l-2.684 7.8174z" fill="#008000"/>
  </g>
 </g>
</svg>
